# xmcd
#
# Track frame offsets: 
#        150
#        16670
#        29202
#        53332
#        74340
#        95503
#        113571
#        135656
#        177039
#        201380
#        219223
#        239539
#        258968
#        269801
#        288557
#        309588
#
# Disc length: 4566 seconds
#
# Revision: 3
# Processed by: cddbd v1.5.2PL0 Copyright (c) Steve Scherf et al.
# Submitted via: ExactAudioCopyFreeDBPlugin 1.0
#
DISCID=ea11d410
DTITLE=Stevie Ray Vaughan - The Real Deal:  Greatest Hits, Volume 1
DYEAR=2006
DGENRE=Blues
TTITLE0=Pride and Joy
TTITLE1=Mary Had a Little Lamb
TTITLE2=Texas Flood
TTITLE3=Rude Mood
TTITLE4=Couldn't Stand the Weather
TTITLE5=Cold Shot
TTITLE6=The Things (That) I Used to Do
TTITLE7=Tin Pan Alley (aka "The Roughest Place in Town")
TTITLE8=Say What!
TTITLE9=Change It
TTITLE10=Come On (Part III)
TTITLE11=Life Without You
TTITLE12=The House is Rockin'
TTITLE13=Crossfire
TTITLE14=Tightrope
TTITLE15=The Sky is Crying (live at Carnegie Hall)
EXTD=YEAR: 2006
EXTT0=
EXTT1=
EXTT2=
EXTT3=
EXTT4=
EXTT5=
EXTT6=
EXTT7=
EXTT8=
EXTT9=
EXTT10=
EXTT11=
EXTT12=
EXTT13=
EXTT14=
EXTT15=
PLAYORDER=
